<?xml version="1.0" standalone="no"?>
<!DOCTYPE svg PUBLIC "-//W3C//DTD SVG 20010904//EN"
 "http://www.w3.org/TR/2001/REC-SVG-20010904/DTD/svg10.dtd">
<svg version="1.0" xmlns="http://www.w3.org/2000/svg"
 width="700.000000pt" height="700.000000pt" viewBox="0 0 700.000000 700.000000"
 preserveAspectRatio="xMidYMid meet">
<metadata>
Created by potrace 1.11, written by Peter Selinger 2001-2013
</metadata>
<g transform="translate(0.000000,700.000000) scale(0.100000,-0.100000)"
fill="#000000" stroke="none">
<path d="M0 3500 l0 -3500 3500 0 3500 0 0 3500 0 3500 -3500 0 -3500 0 0
-3500z m2008 703 l2 -723 -205 0 -205 0 -2 500 -3 501 -129 -501 -129 -500
-141 0 -141 0 -135 510 -135 510 -3 -510 -2 -510 -160 0 -160 0 0 720 0 720
282 -2 282 -3 102 -383 c57 -211 104 -386 107 -388 2 -2 32 117 66 264 35 147
77 324 93 395 l30 127 292 -2 291 -3 3 -722z m2310 550 l2 -173 -210 0 -210 0
0 168 c0 93 3 172 7 176 4 3 97 5 207 4 l201 -3 3 -172z m352 141 c16 -16 32
-44 36 -61 l7 -33 -51 0 c-44 0 -50 3 -56 24 -8 31 -43 43 -64 23 -8 -9 -17
-40 -20 -69 -3 -43 0 -58 16 -78 17 -22 23 -23 46 -12 14 6 26 18 26 27 0 11
12 15 50 15 43 0 50 -3 50 -20 0 -33 -60 -90 -105 -100 -116 -26 -209 62 -191
182 15 97 69 141 169 135 48 -3 63 -8 87 -33z m368 16 c56 -25 87 -88 80 -162
-6 -62 -31 -97 -91 -127 -83 -41 -181 -9 -217 72 -70 152 73 288 228 217z
m385 9 c54 -15 77 -41 77 -89 0 -30 -6 -45 -27 -64 l-26 -25 26 -61 c15 -34
27 -63 27 -66 0 -2 -26 -4 -59 -4 l-59 0 -22 60 c-13 33 -29 60 -36 60 -10 0
-14 -16 -14 -60 l0 -60 -55 0 -55 0 0 160 0 160 93 0 c50 0 109 -5 130 -11z
m379 1 c77 -22 103 -106 49 -160 -22 -23 -41 -30 -90 -36 l-61 -7 0 -53 0 -54
-55 0 -55 0 0 160 0 160 88 0 c48 0 104 -5 124 -10z m351 -4 c38 -16 72 -51
63 -65 -10 -16 -76 -25 -89 -12 -15 15 -80 15 -75 -1 2 -6 31 -19 64 -28 79
-22 99 -34 114 -69 49 -119 -186 -195 -275 -89 -31 36 -31 46 -2 52 48 11 63
10 89 -8 30 -20 73 -18 73 3 0 9 -20 19 -53 27 -96 21 -138 72 -112 134 24 59
129 88 203 56z m-3386 -366 c135 -19 200 -45 265 -110 88 -89 90 -97 98 -530
4 -244 10 -374 18 -393 7 -16 12 -30 12 -33 0 -2 -90 -4 -199 -4 -226 0 -202
-10 -216 92 l-7 48 -30 -41 c-61 -84 -168 -129 -310 -129 -129 0 -206 28 -279
100 -71 71 -94 131 -87 236 15 227 208 346 617 379 l83 7 -6 47 c-9 68 -32 85
-119 89 -62 3 -77 1 -107 -20 -19 -13 -43 -41 -54 -62 -18 -36 -21 -38 -55
-33 -20 3 -101 12 -180 19 -101 8 -145 16 -148 26 -9 22 58 140 103 182 122
112 355 162 601 130z m1071 4 c22 -6 22 -8 22 -188 l0 -183 -53 5 c-107 9
-193 -40 -216 -123 -7 -25 -11 -146 -11 -312 l0 -273 -200 0 -200 0 0 520 0
520 175 0 175 0 0 -92 1 -93 18 47 c10 25 28 60 40 77 46 64 176 114 249 95z
m1348 -9 c87 -26 140 -68 176 -143 l33 -67 3 -427 3 -428 -200 0 -201 0 0 336
c0 353 -6 413 -43 439 -25 17 -80 20 -108 5 -10 -6 -27 -25 -36 -43 -16 -28
-18 -71 -21 -384 l-3 -353 -200 0 -199 0 0 520 0 520 185 0 185 0 0 -66 0 -66
33 43 c42 56 103 98 164 115 65 17 169 17 229 -1z m990 -11 c247 -64 403 -271
404 -536 l0 -78 -361 0 -362 0 6 -52 c7 -56 26 -89 71 -122 21 -16 42 -21 91
-21 77 0 110 20 140 84 20 43 20 43 65 37 25 -3 110 -8 188 -12 109 -5 145
-10 149 -21 10 -27 -59 -145 -121 -207 -108 -107 -240 -156 -426 -156 -190 0
-320 48 -431 159 -109 109 -162 238 -162 396 0 104 20 183 65 265 89 160 232
257 412 280 87 10 195 4 272 -16z m-1856 -534 l0 -520 -210 0 -210 0 0 520 0
520 210 0 210 0 0 -520z m-2870 -775 l0 -175 -140 0 -140 0 0 -550 0 -550
-210 0 -210 0 0 550 0 550 -145 0 -145 0 0 175 0 175 495 0 495 0 0 -175z
m478 3 l-3 -173 -200 0 -200 0 -3 173 -2 172 205 0 205 0 -2 -172z m869 -240
c40 -15 74 -37 108 -72 l50 -51 40 44 c22 24 65 56 95 70 49 23 67 26 170 26
105 0 119 -2 165 -27 61 -32 108 -80 132 -133 16 -36 18 -81 21 -467 l3 -428
-200 0 -200 0 -3 366 c-3 349 -4 366 -22 380 -20 14 -82 19 -111 8 -8 -4 -23
-21 -33 -38 -15 -27 -17 -73 -20 -373 l-3 -343 -199 0 -199 0 -3 361 -3 361
-28 24 c-31 26 -62 30 -100 13 -49 -22 -51 -39 -55 -411 l-3 -348 -200 0 -199
0 0 520 0 520 190 0 190 0 0 -58 0 -58 53 51 c64 62 122 84 229 84 56 1 93 -5
135 -21z m1555 3 c95 -25 159 -57 222 -112 101 -89 162 -228 173 -394 l6 -95
-352 0 -352 0 6 -47 c15 -104 68 -148 169 -139 72 5 106 28 125 84 15 41 15
41 60 36 26 -2 111 -9 190 -14 79 -5 146 -12 148 -14 3 -2 -1 -14 -7 -26 -11
-21 -10 -22 27 -16 83 13 285 37 287 34 35 -81 81 -103 211 -103 110 0 155 16
155 56 0 26 -43 44 -145 59 -376 55 -499 144 -497 362 0 89 33 159 104 223 57
51 95 73 178 101 70 24 307 27 385 5 123 -35 230 -113 274 -200 12 -22 21 -44
21 -49 0 -5 -68 -21 -151 -37 l-151 -28 -22 26 c-35 42 -84 60 -162 61 -51 0
-78 -4 -97 -17 -57 -37 -21 -70 93 -88 309 -48 378 -69 454 -144 61 -61 81
-114 81 -220 0 -106 -20 -160 -83 -223 -52 -52 -166 -106 -264 -126 -96 -20
-271 -20 -360 -1 -146 31 -262 115 -322 234 l-27 52 -25 -48 c-58 -109 -184
-201 -329 -238 -139 -35 -370 -11 -489 52 -124 67 -230 217 -256 363 -23 127
12 302 84 413 121 190 390 281 638 218z m-2422 -521 l0 -520 -205 0 -205 0 0
520 0 520 205 0 205 0 0 -520z"/>
<path d="M4931 4841 c-16 -16 -21 -34 -21 -72 0 -63 13 -89 45 -89 33 0 47 30
43 97 -2 44 -7 59 -25 70 -19 13 -24 12 -42 -6z"/>
<path d="M5310 4830 c0 -25 4 -30 24 -30 57 0 77 33 30 50 -43 17 -54 13 -54
-20z"/>
<path d="M5700 4819 c0 -28 3 -31 23 -25 12 3 28 6 35 6 8 0 12 9 10 23 -2 17
-11 23 -35 25 -31 3 -33 1 -33 -29z"/>
<path d="M2648 3964 c-143 -34 -212 -108 -187 -199 12 -43 50 -65 111 -65 105
0 158 68 158 202 0 87 5 84 -82 62z"/>
<path d="M5940 4292 c-41 -21 -67 -63 -72 -117 l-3 -40 149 -3 149 -3 -7 43
c-14 86 -69 138 -146 138 -19 0 -51 -8 -70 -18z"/>
<path d="M4147 2760 c-52 -16 -79 -53 -90 -122 l-6 -38 140 0 139 0 0 30 c0
43 -23 93 -51 112 -31 20 -96 29 -132 18z"/>
</g>
</svg>
